<?xml version="1.0" standalone="no"?>
<!DOCTYPE svg PUBLIC "-//W3C//DTD SVG 20010904//EN"
 "http://www.w3.org/TR/2001/REC-SVG-20010904/DTD/svg10.dtd">
<svg version="1.0" xmlns="http://www.w3.org/2000/svg"
 width="1275.000000pt" height="1275.000000pt" viewBox="0 0 1275.000000 1275.000000"
 preserveAspectRatio="xMidYMid meet">
<metadata>
Created by potrace 1.14, written by Peter Selinger 2001-2017
</metadata>
<g transform="translate(0.000000,1275.000000) scale(0.100000,-0.100000)"
fill="#000000" stroke="none">
<path d="M2914 12623 c3 -65 8 -127 10 -139 2 -11 7 -54 11 -95 3 -41 8 -85
10 -99 2 -14 6 -52 10 -85 3 -33 8 -71 10 -85 2 -14 7 -52 10 -85 4 -33 8 -71
10 -85 1 -14 6 -47 9 -75 4 -27 9 -61 11 -75 3 -14 7 -52 10 -85 4 -33 8 -67
10 -75 12 -45 20 -137 20 -227 0 -98 -1 -102 -31 -139 -33 -41 -88 -73 -169
-100 -89 -29 -257 -115 -360 -183 -125 -82 -293 -247 -364 -355 -59 -90 -66
-115 -18 -66 67 70 98 94 233 185 143 96 341 183 455 199 42 6 43 6 23 -9
-282 -207 -458 -370 -619 -570 -22 -27 -49 -60 -60 -73 -128 -151 -328 -494
-402 -691 -57 -151 -116 -358 -137 -481 -3 -19 -8 -45 -10 -56 -5 -27 -13 -75
-21 -139 -4 -27 -8 -61 -10 -75 -14 -95 -20 -270 -19 -565 0 -379 4 -506 15
-499 4 2 23 35 43 74 100 192 321 530 348 530 3 0 -1 -28 -8 -62 -23 -108 -40
-247 -50 -413 -13 -194 -7 -584 11 -766 8 -87 17 -166 20 -189 2 -14 7 -50 10
-80 17 -140 114 -602 131 -619 4 -5 2 52 -13 329 -16 303 -8 847 17 1055 5 44
12 103 15 130 3 28 7 57 10 65 2 8 6 37 9 64 3 26 10 65 15 85 5 20 12 50 15
66 5 31 6 36 26 120 123 518 413 996 788 1299 39 32 72 60 72 63 0 8 -94 -9
-160 -29 -118 -36 -250 -110 -405 -227 -51 -38 -239 -193 -255 -211 -3 -3 -25
-23 -49 -45 l-44 -40 37 58 c86 137 109 170 153 224 185 229 457 465 718 625
245 149 579 276 822 312 7 1 16 5 19 9 11 11 -191 12 -321 2 -219 -17 -486
-78 -700 -160 -21 -8 -5 12 70 88 35 36 194 157 205 157 5 0 15 6 22 13 7 8
56 36 108 64 203 109 404 156 660 156 265 1 488 -52 732 -174 90 -45 256 -143
268 -158 3 -4 21 -18 40 -31 103 -70 280 -242 403 -390 39 -47 81 -96 93 -110
12 -14 46 -52 75 -85 77 -89 252 -262 347 -343 264 -225 616 -389 920 -428 17
-2 49 -6 70 -9 20 -3 62 -7 92 -10 30 -3 69 -7 85 -9 17 -3 56 -8 88 -12 32
-3 55 -10 50 -14 -38 -34 -297 -107 -417 -117 -140 -13 -427 -7 -536 11 -14 3
-74 12 -135 21 -60 9 -155 26 -210 37 -55 11 -109 22 -120 24 -11 2 -146 33
-300 68 -154 35 -318 70 -365 76 -381 52 -706 -59 -972 -333 -247 -255 -369
-545 -372 -887 -1 -154 6 -236 34 -361 134 -614 604 -1168 1200 -1412 80 -33
167 -64 200 -72 8 -3 40 -11 70 -20 49 -13 132 -29 215 -41 17 -2 46 -7 65
-11 47 -8 367 -11 405 -3 29 6 28 6 -20 19 -84 21 -235 80 -340 133 -258 128
-447 304 -537 498 -29 63 -52 129 -46 135 2 2 26 -3 53 -11 129 -39 357 -76
556 -90 173 -12 662 -5 719 10 8 3 52 7 96 11 45 3 93 8 105 10 13 2 44 6 69
9 86 11 210 35 224 44 9 5 -80 29 -218 57 -15 3 -56 12 -90 20 -33 8 -73 16
-89 19 -15 3 -35 7 -45 10 -9 3 -28 7 -42 10 -14 2 -45 9 -70 16 -25 7 -52 13
-60 15 -116 23 -380 107 -540 172 -204 82 -443 214 -561 310 -228 185 -375
360 -484 578 -66 132 -86 201 -91 320 -6 161 50 321 153 431 76 81 83 84 62
21 -29 -86 -30 -173 -4 -255 3 -8 35 17 80 62 120 119 251 198 410 245 84 25
144 36 245 46 53 5 300 6 350 1 19 -2 73 -7 119 -11 47 -4 92 -8 100 -10 9 -1
41 -6 71 -9 30 -4 69 -8 85 -10 17 -3 62 -7 100 -11 39 -4 72 -9 75 -10 14 -8
214 -19 350 -19 284 0 477 57 675 199 63 46 155 127 155 138 0 4 -93 73 -207
154 -406 287 -634 461 -703 536 -54 59 -128 175 -151 237 -33 88 -115 281
-152 356 -112 230 -212 374 -355 512 -112 108 -196 162 -422 274 -528 260
-1040 515 -1160 579 -263 139 -529 301 -650 394 -89 69 -354 340 -625 640 -44
48 -101 111 -127 139 -26 28 -48 54 -48 59 0 4 -5 7 -11 7 -9 0 -10 -33 -5
-117z"/>
<path d="M4523 12418 c1 -246 -7 -469 -17 -523 -2 -11 -7 -40 -10 -65 -10 -71
-15 -94 -31 -140 -8 -23 -15 -48 -15 -56 0 -12 65 -51 265 -159 152 -82 728
-365 733 -360 2 1 -28 49 -66 106 -122 185 -331 534 -429 718 -19 35 -40 73
-47 85 -8 11 -31 55 -54 96 -67 127 -104 193 -129 232 -13 21 -23 40 -23 43 0
3 -18 35 -40 71 -22 36 -40 68 -40 70 0 5 -80 135 -90 147 -4 5 -7 -115 -7
-265z"/>
<path d="M1307 8643 c-217 -448 -359 -837 -472 -1295 -14 -53 -26 -107 -29
-120 -2 -13 -10 -45 -16 -73 -6 -27 -13 -59 -16 -70 -2 -11 -6 -31 -9 -45 -2
-14 -7 -41 -10 -60 -3 -19 -8 -42 -10 -50 -2 -8 -7 -35 -10 -60 -4 -24 -8 -47
-10 -50 -1 -3 -6 -31 -9 -62 -4 -31 -11 -83 -16 -115 -12 -72 -12 -1451 0
-1513 4 -25 11 -65 15 -90 34 -239 144 -600 249 -820 236 -495 626 -847 1186
-1070 162 -64 414 -140 554 -166 12 -2 41 -8 66 -14 67 -15 242 -43 345 -55
28 -3 59 -8 70 -10 23 -5 105 -12 220 -21 44 -3 98 -7 120 -9 187 -19 735 -22
1335 -10 201 4 403 7 450 7 662 -7 1032 -12 1110 -17 209 -11 287 -16 320 -20
19 -3 64 -7 100 -10 57 -5 164 -18 240 -30 14 -3 43 -7 65 -11 35 -5 131 -24
205 -40 404 -86 795 -263 1089 -492 124 -96 305 -279 394 -397 233 -310 389
-648 501 -1086 33 -130 79 -358 91 -457 4 -26 8 -56 10 -68 2 -11 6 -52 10
-90 4 -38 9 -76 11 -84 1 -8 3 -27 3 -42 1 -16 6 -28 12 -28 16 0 222 105 344
175 213 122 456 292 651 456 114 95 375 353 455 449 99 120 200 256 241 325
16 28 43 73 60 100 45 72 132 248 167 336 66 168 131 404 146 529 3 30 8 62
10 70 7 26 18 211 18 295 0 91 -12 295 -17 304 -3 3 -7 33 -11 65 -8 75 -37
215 -70 339 -30 113 -113 358 -126 372 -5 5 -9 15 -9 22 0 7 -24 65 -54 128
-30 63 -51 115 -47 115 11 0 86 -66 144 -128 217 -228 380 -586 451 -992 24
-131 24 -137 31 -208 3 -37 8 -77 10 -89 3 -12 6 -54 6 -94 1 -56 4 -68 12
-54 11 21 73 244 82 297 3 18 8 40 10 48 2 8 7 31 10 50 3 19 8 42 10 50 3 8
7 31 9 50 3 19 7 58 11 85 3 28 8 57 10 65 26 104 27 845 1 889 -2 3 -7 33
-10 66 -4 33 -9 67 -11 75 -2 8 -7 31 -10 50 -36 217 -154 553 -271 775 -368
699 -1086 1258 -1914 1493 -132 37 -237 62 -325 77 -16 3 -41 8 -55 10 -50 10
-66 13 -130 20 -36 4 -74 9 -85 11 -136 26 -798 25 -955 0 -14 -3 -50 -7 -80
-10 -69 -6 -213 -27 -220 -31 -3 -2 -30 -6 -60 -10 -30 -4 -86 -13 -125 -22
-38 -8 -81 -17 -95 -19 -14 -3 -54 -12 -90 -20 -36 -9 -72 -17 -80 -19 -8 -2
-35 -8 -60 -14 -25 -7 -53 -13 -63 -16 -10 -2 -52 -14 -95 -26 -42 -12 -90
-25 -107 -29 -16 -5 -61 -17 -100 -28 -57 -16 -133 -34 -240 -58 -30 -6 -328
-53 -370 -58 -49 -6 -98 -12 -180 -21 -172 -19 -441 -33 -658 -34 l-98 -1 18
-23 c46 -61 201 -158 357 -222 61 -26 120 -50 131 -55 11 -5 65 -23 120 -40
55 -17 114 -35 130 -40 55 -17 273 -68 321 -76 41 -6 45 -8 30 -19 -32 -24
-392 -109 -546 -130 -25 -3 -56 -8 -70 -10 -14 -3 -34 -7 -45 -9 -11 -2 -49
-7 -85 -11 -36 -4 -72 -8 -81 -10 -8 -2 -50 -6 -91 -9 -42 -4 -91 -9 -110 -11
-163 -21 -678 -21 -858 0 -19 2 -60 7 -90 10 -85 9 -130 15 -190 25 -30 5 -71
12 -90 15 -29 4 -79 15 -100 20 -3 1 -23 5 -45 9 -213 42 -509 146 -725 257
-322 163 -567 388 -813 742 -26 37 -47 70 -47 73 0 3 -15 28 -33 57 -61 95
-144 260 -202 397 -31 74 -62 148 -69 164 l-13 30 -1 -45 c-1 -24 -4 -54 -6
-66 -41 -210 -54 -922 -21 -1127 3 -19 8 -46 21 -136 3 -19 10 -53 16 -75 6
-22 12 -47 13 -55 2 -8 4 -15 5 -15 1 0 3 -10 6 -23 6 -36 62 -163 90 -205 14
-22 24 -41 22 -43 -6 -6 -117 49 -183 91 -142 90 -227 179 -326 345 -94 156
-191 397 -224 558 -2 9 -8 37 -14 62 -15 66 -20 97 -32 180 -5 41 -12 86 -14
100 -22 127 -22 623 -1 738 2 9 7 53 10 97 l7 80 -102 -252 c-56 -139 -105
-253 -108 -253 -16 0 -58 174 -95 394 -25 146 -39 343 -39 546 0 129 10 356
17 396 2 10 7 53 11 94 4 41 9 78 12 83 2 4 0 7 -5 7 -5 0 -47 -80 -95 -177z
m-403 -2878 c29 -186 83 -401 145 -575 46 -130 39 -112 121 -285 280 -585 749
-984 1355 -1155 112 -31 292 -67 376 -75 26 -2 61 -7 78 -10 17 -3 31 -3 31
-1 0 3 -21 20 -47 37 -111 76 -261 244 -353 394 -97 159 -197 417 -225 584 -3
19 -9 39 -12 45 -3 6 12 -5 33 -25 78 -72 91 -82 200 -165 99 -75 294 -204
308 -204 3 0 20 -10 38 -23 59 -39 338 -174 483 -233 201 -81 538 -193 658
-219 12 -2 67 -15 122 -29 55 -13 150 -34 210 -45 61 -12 121 -23 135 -26 13
-2 40 -7 60 -10 20 -3 47 -8 60 -10 14 -3 43 -8 65 -10 37 -4 95 -13 136 -20
136 -25 726 -25 769 0 3 1 28 6 55 9 74 10 239 47 248 55 4 4 -15 18 -43 31
-27 13 -50 27 -50 32 0 4 -5 8 -11 8 -21 0 -203 143 -275 216 -126 128 -201
248 -243 389 -20 67 -35 215 -22 215 4 0 16 -6 27 -14 105 -74 669 -315 798
-342 11 -2 47 -12 80 -23 54 -18 184 -53 245 -66 11 -3 29 -7 39 -9 116 -29
345 -69 492 -86 52 -6 109 -13 125 -15 192 -25 638 -24 940 2 163 14 676 7
773 -12 9 -1 44 -6 77 -10 33 -4 69 -9 80 -11 363 -59 684 -176 935 -342 47
-31 87 -58 90 -61 3 -3 28 -24 55 -46 28 -22 85 -76 128 -120 43 -44 76 -73
73 -65 -2 8 -7 42 -10 75 -13 160 -83 391 -171 568 -127 254 -307 477 -538
666 -42 35 -76 65 -74 67 5 6 162 -37 282 -77 224 -75 473 -211 635 -348 256
-215 449 -501 565 -831 35 -103 79 -263 90 -330 3 -19 8 -42 10 -50 2 -8 7
-37 11 -65 3 -27 8 -59 10 -70 23 -121 22 -539 -2 -705 -51 -354 -142 -612
-310 -888 -220 -359 -570 -711 -959 -963 -118 -77 -115 -76 -116 -32 0 21 -2
45 -4 53 -1 9 -6 49 -9 89 -4 41 -8 77 -10 80 -2 3 -7 29 -10 56 -15 134 -70
368 -128 545 -207 632 -591 1112 -1178 1469 -88 54 -255 139 -338 173 -239 96
-603 181 -951 223 -23 3 -55 7 -70 9 -24 4 -53 7 -196 21 -27 3 -75 7 -105 10
-30 3 -89 8 -130 10 -41 3 -106 7 -145 10 -342 23 -779 32 -1900 40 -654 5
-783 7 -1035 20 -159 8 -343 21 -415 30 -16 2 -52 7 -80 10 -52 6 -70 9 -170
26 -376 63 -747 227 -1025 453 -264 214 -488 512 -635 848 -71 162 -154 413
-186 563 -7 33 -13 62 -14 65 -5 24 -18 89 -21 108 -29 172 -39 261 -48 437
-5 98 -3 95 18 -40z"/>
</g>
</svg>
